<mxfile host="app.diagrams.net" modified="2023-07-31T17:44:15.597Z" agent="Mozilla/5.0 (Windows NT 10.0; Win64; x64) AppleWebKit/537.36 (KHTML, like Gecko) Chrome/115.0.0.0 Safari/537.36 Edg/115.0.1901.188" etag="k6lxKtfYTPnHWrS2QjXd" version="21.6.6" type="github">
  <diagram name="Page-1" id="shBmR1qRVMbmSCvy-C-B">
    <mxGraphModel dx="1379" dy="788" grid="1" gridSize="10" guides="1" tooltips="1" connect="1" arrows="0" fold="1" page="1" pageScale="1" pageWidth="827" pageHeight="1169" math="0" shadow="0">
      <root>
        <mxCell id="0" />
        <mxCell id="1" parent="0" />
        <mxCell id="EdGCllr-r__RHjTWsl7o-1" value="Patient" style="rounded=0;whiteSpace=wrap;html=1;" vertex="1" parent="1">
          <mxGeometry x="540" y="210" width="80" height="40" as="geometry" />
        </mxCell>
        <mxCell id="EdGCllr-r__RHjTWsl7o-3" value="Admit" style="rounded=0;whiteSpace=wrap;html=1;" vertex="1" parent="1">
          <mxGeometry x="650" y="150" width="70" height="30" as="geometry" />
        </mxCell>
        <mxCell id="EdGCllr-r__RHjTWsl7o-4" value="Out" style="rounded=0;whiteSpace=wrap;html=1;" vertex="1" parent="1">
          <mxGeometry x="650" y="260" width="70" height="30" as="geometry" />
        </mxCell>
        <mxCell id="EdGCllr-r__RHjTWsl7o-5" value="is&lt;br&gt;assigned" style="rhombus;whiteSpace=wrap;html=1;" vertex="1" parent="1">
          <mxGeometry x="740" y="180" width="80" height="80" as="geometry" />
        </mxCell>
        <mxCell id="EdGCllr-r__RHjTWsl7o-7" value="" style="endArrow=none;html=1;rounded=0;" edge="1" parent="1">
          <mxGeometry width="50" height="50" relative="1" as="geometry">
            <mxPoint x="620" y="210" as="sourcePoint" />
            <mxPoint x="650" y="180" as="targetPoint" />
          </mxGeometry>
        </mxCell>
        <mxCell id="EdGCllr-r__RHjTWsl7o-8" value="" style="endArrow=none;html=1;rounded=0;exitX=0;exitY=0.25;exitDx=0;exitDy=0;entryX=1;entryY=1;entryDx=0;entryDy=0;" edge="1" parent="1" source="EdGCllr-r__RHjTWsl7o-4" target="EdGCllr-r__RHjTWsl7o-1">
          <mxGeometry width="50" height="50" relative="1" as="geometry">
            <mxPoint x="580" y="300" as="sourcePoint" />
            <mxPoint x="630" y="250" as="targetPoint" />
          </mxGeometry>
        </mxCell>
        <mxCell id="EdGCllr-r__RHjTWsl7o-9" value="" style="endArrow=none;html=1;rounded=0;" edge="1" parent="1">
          <mxGeometry width="50" height="50" relative="1" as="geometry">
            <mxPoint x="640" y="260" as="sourcePoint" />
            <mxPoint x="640" y="190" as="targetPoint" />
          </mxGeometry>
        </mxCell>
        <mxCell id="EdGCllr-r__RHjTWsl7o-10" value="" style="endArrow=none;html=1;rounded=0;entryX=0.5;entryY=0;entryDx=0;entryDy=0;" edge="1" parent="1" target="EdGCllr-r__RHjTWsl7o-5">
          <mxGeometry width="50" height="50" relative="1" as="geometry">
            <mxPoint x="720" y="170" as="sourcePoint" />
            <mxPoint x="770" y="120" as="targetPoint" />
            <Array as="points">
              <mxPoint x="750" y="170" />
            </Array>
          </mxGeometry>
        </mxCell>
        <mxCell id="EdGCllr-r__RHjTWsl7o-18" value="" style="edgeStyle=orthogonalEdgeStyle;rounded=0;orthogonalLoop=1;jettySize=auto;html=1;endArrow=oval;endFill=1;startArrow=oval;startFill=1;" edge="1" parent="1" source="EdGCllr-r__RHjTWsl7o-11" target="EdGCllr-r__RHjTWsl7o-17">
          <mxGeometry relative="1" as="geometry" />
        </mxCell>
        <mxCell id="EdGCllr-r__RHjTWsl7o-11" value="Nurse" style="rounded=0;whiteSpace=wrap;html=1;" vertex="1" parent="1">
          <mxGeometry x="745" y="290" width="70" height="30" as="geometry" />
        </mxCell>
        <mxCell id="EdGCllr-r__RHjTWsl7o-12" value="" style="endArrow=none;html=1;rounded=0;exitX=0.5;exitY=0;exitDx=0;exitDy=0;" edge="1" parent="1" source="EdGCllr-r__RHjTWsl7o-11">
          <mxGeometry width="50" height="50" relative="1" as="geometry">
            <mxPoint x="710" y="270" as="sourcePoint" />
            <mxPoint x="780" y="260" as="targetPoint" />
          </mxGeometry>
        </mxCell>
        <mxCell id="EdGCllr-r__RHjTWsl7o-35" style="edgeStyle=orthogonalEdgeStyle;rounded=0;orthogonalLoop=1;jettySize=auto;html=1;exitX=0.5;exitY=1;exitDx=0;exitDy=0;entryX=0.5;entryY=0;entryDx=0;entryDy=0;endArrow=baseDash;endFill=0;" edge="1" parent="1" source="EdGCllr-r__RHjTWsl7o-17" target="EdGCllr-r__RHjTWsl7o-19">
          <mxGeometry relative="1" as="geometry" />
        </mxCell>
        <mxCell id="EdGCllr-r__RHjTWsl7o-17" value="Id" style="triangle;whiteSpace=wrap;html=1;rounded=0;" vertex="1" parent="1">
          <mxGeometry x="760" y="375" width="50" height="55" as="geometry" />
        </mxCell>
        <mxCell id="EdGCllr-r__RHjTWsl7o-19" value="Head Nurse" style="whiteSpace=wrap;html=1;rounded=0;" vertex="1" parent="1">
          <mxGeometry x="732.5" y="507.5" width="105" height="32.5" as="geometry" />
        </mxCell>
        <mxCell id="EdGCllr-r__RHjTWsl7o-22" value="" style="rhombus;whiteSpace=wrap;html=1;" vertex="1" parent="1">
          <mxGeometry x="630" y="520" width="90" height="90" as="geometry" />
        </mxCell>
        <mxCell id="EdGCllr-r__RHjTWsl7o-25" value="" style="edgeStyle=orthogonalEdgeStyle;rounded=0;orthogonalLoop=1;jettySize=auto;html=1;endArrow=baseDash;endFill=0;" edge="1" parent="1" source="EdGCllr-r__RHjTWsl7o-23" target="EdGCllr-r__RHjTWsl7o-24">
          <mxGeometry relative="1" as="geometry" />
        </mxCell>
        <mxCell id="EdGCllr-r__RHjTWsl7o-23" value="&lt;font style=&quot;font-size: 11px;&quot;&gt;Is&lt;br&gt;Assigned&lt;/font&gt;" style="rhombus;whiteSpace=wrap;html=1;" vertex="1" parent="1">
          <mxGeometry x="640" y="535" width="65" height="65" as="geometry" />
        </mxCell>
        <mxCell id="EdGCllr-r__RHjTWsl7o-27" value="" style="edgeStyle=orthogonalEdgeStyle;rounded=0;orthogonalLoop=1;jettySize=auto;html=1;endArrow=baseDash;endFill=0;" edge="1" parent="1" source="EdGCllr-r__RHjTWsl7o-24" target="EdGCllr-r__RHjTWsl7o-26">
          <mxGeometry relative="1" as="geometry" />
        </mxCell>
        <mxCell id="EdGCllr-r__RHjTWsl7o-24" value="Room" style="whiteSpace=wrap;html=1;" vertex="1" parent="1">
          <mxGeometry x="520" y="537.5" width="67.5" height="52.5" as="geometry" />
        </mxCell>
        <mxCell id="EdGCllr-r__RHjTWsl7o-29" value="" style="edgeStyle=orthogonalEdgeStyle;rounded=0;orthogonalLoop=1;jettySize=auto;html=1;endArrow=baseDash;endFill=0;strokeColor=none;" edge="1" parent="1" source="EdGCllr-r__RHjTWsl7o-26" target="EdGCllr-r__RHjTWsl7o-28">
          <mxGeometry relative="1" as="geometry" />
        </mxCell>
        <mxCell id="EdGCllr-r__RHjTWsl7o-36" style="edgeStyle=orthogonalEdgeStyle;rounded=0;orthogonalLoop=1;jettySize=auto;html=1;exitX=0;exitY=0.5;exitDx=0;exitDy=0;entryX=1;entryY=0.5;entryDx=0;entryDy=0;strokeColor=default;endArrow=baseDash;endFill=0;" edge="1" parent="1" source="EdGCllr-r__RHjTWsl7o-26" target="EdGCllr-r__RHjTWsl7o-28">
          <mxGeometry relative="1" as="geometry" />
        </mxCell>
        <mxCell id="EdGCllr-r__RHjTWsl7o-26" value="Has" style="rhombus;whiteSpace=wrap;html=1;" vertex="1" parent="1">
          <mxGeometry x="400" y="523.75" width="46.25" height="56.25" as="geometry" />
        </mxCell>
        <mxCell id="EdGCllr-r__RHjTWsl7o-32" style="edgeStyle=orthogonalEdgeStyle;rounded=0;orthogonalLoop=1;jettySize=auto;html=1;exitX=0.5;exitY=1;exitDx=0;exitDy=0;entryX=0;entryY=0.5;entryDx=0;entryDy=0;endArrow=baseDash;endFill=0;" edge="1" parent="1" source="EdGCllr-r__RHjTWsl7o-28" target="EdGCllr-r__RHjTWsl7o-30">
          <mxGeometry relative="1" as="geometry" />
        </mxCell>
        <mxCell id="EdGCllr-r__RHjTWsl7o-28" value="Ward" style="whiteSpace=wrap;html=1;" vertex="1" parent="1">
          <mxGeometry x="290" y="521.88" width="66.88" height="38.13" as="geometry" />
        </mxCell>
        <mxCell id="EdGCllr-r__RHjTWsl7o-34" style="edgeStyle=orthogonalEdgeStyle;orthogonalLoop=1;jettySize=auto;html=1;exitX=1;exitY=0.5;exitDx=0;exitDy=0;rounded=1;strokeWidth=2;endArrow=baseDash;endFill=0;entryX=0.5;entryY=1;entryDx=0;entryDy=0;" edge="1" parent="1" source="EdGCllr-r__RHjTWsl7o-30" target="EdGCllr-r__RHjTWsl7o-19">
          <mxGeometry relative="1" as="geometry">
            <mxPoint x="800" y="590" as="targetPoint" />
          </mxGeometry>
        </mxCell>
        <mxCell id="EdGCllr-r__RHjTWsl7o-30" value="Marg" style="rhombus;whiteSpace=wrap;html=1;" vertex="1" parent="1">
          <mxGeometry x="383.13" y="620" width="80" height="80" as="geometry" />
        </mxCell>
        <mxCell id="EdGCllr-r__RHjTWsl7o-39" style="edgeStyle=orthogonalEdgeStyle;rounded=0;orthogonalLoop=1;jettySize=auto;html=1;exitX=0.5;exitY=0;exitDx=0;exitDy=0;entryX=0.5;entryY=1;entryDx=0;entryDy=0;endArrow=baseDash;endFill=0;" edge="1" parent="1" source="EdGCllr-r__RHjTWsl7o-37" target="EdGCllr-r__RHjTWsl7o-1">
          <mxGeometry relative="1" as="geometry" />
        </mxCell>
        <mxCell id="EdGCllr-r__RHjTWsl7o-41" style="edgeStyle=orthogonalEdgeStyle;rounded=0;orthogonalLoop=1;jettySize=auto;html=1;exitX=1;exitY=1;exitDx=0;exitDy=0;entryX=0;entryY=0.5;entryDx=0;entryDy=0;endArrow=baseDash;endFill=0;" edge="1" parent="1" source="EdGCllr-r__RHjTWsl7o-37" target="EdGCllr-r__RHjTWsl7o-40">
          <mxGeometry relative="1" as="geometry" />
        </mxCell>
        <mxCell id="EdGCllr-r__RHjTWsl7o-37" value="" style="rhombus;whiteSpace=wrap;html=1;" vertex="1" parent="1">
          <mxGeometry x="540" y="280" width="80" height="80" as="geometry" />
        </mxCell>
        <mxCell id="EdGCllr-r__RHjTWsl7o-38" value="Make" style="rhombus;whiteSpace=wrap;html=1;" vertex="1" parent="1">
          <mxGeometry x="555" y="295" width="50" height="50" as="geometry" />
        </mxCell>
        <mxCell id="EdGCllr-r__RHjTWsl7o-40" value="Payments" style="whiteSpace=wrap;html=1;rounded=0;" vertex="1" parent="1">
          <mxGeometry x="627.5" y="340" width="105" height="32.5" as="geometry" />
        </mxCell>
        <mxCell id="EdGCllr-r__RHjTWsl7o-44" style="edgeStyle=orthogonalEdgeStyle;rounded=0;orthogonalLoop=1;jettySize=auto;html=1;exitX=0.5;exitY=0;exitDx=0;exitDy=0;entryX=0.5;entryY=1;entryDx=0;entryDy=0;endArrow=baseDash;endFill=0;" edge="1" parent="1" source="EdGCllr-r__RHjTWsl7o-42" target="EdGCllr-r__RHjTWsl7o-40">
          <mxGeometry relative="1" as="geometry" />
        </mxCell>
        <mxCell id="EdGCllr-r__RHjTWsl7o-42" value="Pay ID" style="ellipse;whiteSpace=wrap;html=1;" vertex="1" parent="1">
          <mxGeometry x="605" y="390" width="55" height="40" as="geometry" />
        </mxCell>
        <mxCell id="EdGCllr-r__RHjTWsl7o-45" style="edgeStyle=orthogonalEdgeStyle;rounded=0;orthogonalLoop=1;jettySize=auto;html=1;exitX=0.5;exitY=0;exitDx=0;exitDy=0;entryX=0.5;entryY=1;entryDx=0;entryDy=0;endArrow=baseDash;endFill=0;" edge="1" parent="1" source="EdGCllr-r__RHjTWsl7o-43" target="EdGCllr-r__RHjTWsl7o-40">
          <mxGeometry relative="1" as="geometry" />
        </mxCell>
        <mxCell id="EdGCllr-r__RHjTWsl7o-43" value="Made" style="ellipse;whiteSpace=wrap;html=1;" vertex="1" parent="1">
          <mxGeometry x="685" y="400" width="55" height="30" as="geometry" />
        </mxCell>
        <mxCell id="EdGCllr-r__RHjTWsl7o-46" value="Appointment" style="whiteSpace=wrap;html=1;" vertex="1" parent="1">
          <mxGeometry x="500" y="400" width="86.88" height="38.13" as="geometry" />
        </mxCell>
        <mxCell id="EdGCllr-r__RHjTWsl7o-54" style="edgeStyle=orthogonalEdgeStyle;rounded=0;orthogonalLoop=1;jettySize=auto;html=1;exitX=1;exitY=0.5;exitDx=0;exitDy=0;endArrow=baseDash;endFill=0;" edge="1" parent="1" source="EdGCllr-r__RHjTWsl7o-47">
          <mxGeometry relative="1" as="geometry">
            <mxPoint x="520" y="440" as="targetPoint" />
          </mxGeometry>
        </mxCell>
        <mxCell id="EdGCllr-r__RHjTWsl7o-47" value="Date" style="ellipse;whiteSpace=wrap;html=1;" vertex="1" parent="1">
          <mxGeometry x="430" y="438.13" width="55" height="30" as="geometry" />
        </mxCell>
        <mxCell id="EdGCllr-r__RHjTWsl7o-53" style="edgeStyle=orthogonalEdgeStyle;rounded=0;orthogonalLoop=1;jettySize=auto;html=1;exitX=0.5;exitY=0;exitDx=0;exitDy=0;endArrow=baseDash;endFill=0;" edge="1" parent="1" source="EdGCllr-r__RHjTWsl7o-48">
          <mxGeometry relative="1" as="geometry">
            <mxPoint x="530" y="440" as="targetPoint" />
          </mxGeometry>
        </mxCell>
        <mxCell id="EdGCllr-r__RHjTWsl7o-48" value="Time" style="ellipse;whiteSpace=wrap;html=1;" vertex="1" parent="1">
          <mxGeometry x="480" y="477.5" width="55" height="30" as="geometry" />
        </mxCell>
        <mxCell id="EdGCllr-r__RHjTWsl7o-52" style="edgeStyle=orthogonalEdgeStyle;rounded=0;orthogonalLoop=1;jettySize=auto;html=1;exitX=0.5;exitY=0;exitDx=0;exitDy=0;endArrow=baseDash;endFill=0;" edge="1" parent="1" source="EdGCllr-r__RHjTWsl7o-49">
          <mxGeometry relative="1" as="geometry">
            <mxPoint x="550" y="430" as="targetPoint" />
          </mxGeometry>
        </mxCell>
        <mxCell id="EdGCllr-r__RHjTWsl7o-49" value="Location" style="ellipse;whiteSpace=wrap;html=1;" vertex="1" parent="1">
          <mxGeometry x="552.5" y="477.5" width="55" height="30" as="geometry" />
        </mxCell>
        <mxCell id="EdGCllr-r__RHjTWsl7o-51" style="edgeStyle=orthogonalEdgeStyle;rounded=0;orthogonalLoop=1;jettySize=auto;html=1;exitX=0;exitY=0.5;exitDx=0;exitDy=0;endArrow=baseDash;endFill=0;" edge="1" parent="1" source="EdGCllr-r__RHjTWsl7o-50">
          <mxGeometry relative="1" as="geometry">
            <mxPoint x="560" y="440" as="targetPoint" />
          </mxGeometry>
        </mxCell>
        <mxCell id="EdGCllr-r__RHjTWsl7o-50" value="Number" style="ellipse;whiteSpace=wrap;html=1;" vertex="1" parent="1">
          <mxGeometry x="605" y="450" width="55" height="30" as="geometry" />
        </mxCell>
        <mxCell id="EdGCllr-r__RHjTWsl7o-56" style="edgeStyle=orthogonalEdgeStyle;rounded=0;orthogonalLoop=1;jettySize=auto;html=1;exitX=1;exitY=0.5;exitDx=0;exitDy=0;entryX=0;entryY=0.5;entryDx=0;entryDy=0;endArrow=baseDash;endFill=0;" edge="1" parent="1" source="EdGCllr-r__RHjTWsl7o-55" target="EdGCllr-r__RHjTWsl7o-1">
          <mxGeometry relative="1" as="geometry" />
        </mxCell>
        <mxCell id="EdGCllr-r__RHjTWsl7o-55" value="Treat" style="rhombus;whiteSpace=wrap;html=1;" vertex="1" parent="1">
          <mxGeometry x="418" y="190" width="80" height="80" as="geometry" />
        </mxCell>
        <mxCell id="EdGCllr-r__RHjTWsl7o-58" style="edgeStyle=orthogonalEdgeStyle;rounded=0;orthogonalLoop=1;jettySize=auto;html=1;exitX=1;exitY=0.5;exitDx=0;exitDy=0;entryX=0;entryY=0.5;entryDx=0;entryDy=0;endArrow=baseDash;endFill=0;" edge="1" parent="1" source="EdGCllr-r__RHjTWsl7o-57" target="EdGCllr-r__RHjTWsl7o-55">
          <mxGeometry relative="1" as="geometry" />
        </mxCell>
        <mxCell id="EdGCllr-r__RHjTWsl7o-57" value="Doctor" style="rounded=0;whiteSpace=wrap;html=1;" vertex="1" parent="1">
          <mxGeometry x="283.44" y="200" width="80" height="40" as="geometry" />
        </mxCell>
        <mxCell id="EdGCllr-r__RHjTWsl7o-63" style="edgeStyle=orthogonalEdgeStyle;rounded=0;orthogonalLoop=1;jettySize=auto;html=1;exitX=1;exitY=0.5;exitDx=0;exitDy=0;entryX=0;entryY=0.75;entryDx=0;entryDy=0;endArrow=baseDash;endFill=0;" edge="1" parent="1" source="EdGCllr-r__RHjTWsl7o-59" target="EdGCllr-r__RHjTWsl7o-57">
          <mxGeometry relative="1" as="geometry" />
        </mxCell>
        <mxCell id="EdGCllr-r__RHjTWsl7o-59" value="Doc.ID" style="ellipse;whiteSpace=wrap;html=1;" vertex="1" parent="1">
          <mxGeometry x="180" y="210" width="60" height="40" as="geometry" />
        </mxCell>
        <mxCell id="EdGCllr-r__RHjTWsl7o-64" style="edgeStyle=orthogonalEdgeStyle;rounded=0;orthogonalLoop=1;jettySize=auto;html=1;exitX=1;exitY=0;exitDx=0;exitDy=0;entryX=0.344;entryY=1.025;entryDx=0;entryDy=0;entryPerimeter=0;endArrow=baseDash;endFill=0;" edge="1" parent="1" source="EdGCllr-r__RHjTWsl7o-60" target="EdGCllr-r__RHjTWsl7o-57">
          <mxGeometry relative="1" as="geometry" />
        </mxCell>
        <mxCell id="EdGCllr-r__RHjTWsl7o-60" value="name" style="ellipse;whiteSpace=wrap;html=1;" vertex="1" parent="1">
          <mxGeometry x="230" y="270" width="60" height="40" as="geometry" />
        </mxCell>
        <mxCell id="EdGCllr-r__RHjTWsl7o-65" style="edgeStyle=orthogonalEdgeStyle;rounded=0;orthogonalLoop=1;jettySize=auto;html=1;exitX=0.5;exitY=0;exitDx=0;exitDy=0;entryX=0.632;entryY=1.075;entryDx=0;entryDy=0;entryPerimeter=0;endArrow=baseDash;endFill=0;" edge="1" parent="1" source="EdGCllr-r__RHjTWsl7o-62" target="EdGCllr-r__RHjTWsl7o-57">
          <mxGeometry relative="1" as="geometry" />
        </mxCell>
        <mxCell id="EdGCllr-r__RHjTWsl7o-62" value="" style="ellipse;whiteSpace=wrap;html=1;" vertex="1" parent="1">
          <mxGeometry x="310" y="270" width="90" height="70" as="geometry" />
        </mxCell>
        <mxCell id="EdGCllr-r__RHjTWsl7o-61" value="Content" style="ellipse;whiteSpace=wrap;html=1;" vertex="1" parent="1">
          <mxGeometry x="323.13" y="285" width="60" height="40" as="geometry" />
        </mxCell>
        <mxCell id="EdGCllr-r__RHjTWsl7o-67" style="edgeStyle=orthogonalEdgeStyle;rounded=0;orthogonalLoop=1;jettySize=auto;html=1;exitX=1;exitY=0.5;exitDx=0;exitDy=0;entryX=0.6;entryY=0.05;entryDx=0;entryDy=0;entryPerimeter=0;endArrow=baseDash;endFill=0;" edge="1" parent="1" source="EdGCllr-r__RHjTWsl7o-66" target="EdGCllr-r__RHjTWsl7o-1">
          <mxGeometry relative="1" as="geometry" />
        </mxCell>
        <mxCell id="EdGCllr-r__RHjTWsl7o-77" style="edgeStyle=orthogonalEdgeStyle;rounded=0;orthogonalLoop=1;jettySize=auto;html=1;exitX=0;exitY=0.5;exitDx=0;exitDy=0;entryX=0;entryY=0;entryDx=0;entryDy=0;endArrow=baseDash;endFill=0;" edge="1" parent="1" source="EdGCllr-r__RHjTWsl7o-66" target="EdGCllr-r__RHjTWsl7o-69">
          <mxGeometry relative="1" as="geometry">
            <mxPoint x="130" y="390" as="targetPoint" />
            <Array as="points">
              <mxPoint x="160" y="110" />
              <mxPoint x="160" y="446" />
            </Array>
          </mxGeometry>
        </mxCell>
        <mxCell id="EdGCllr-r__RHjTWsl7o-66" value="Is&amp;nbsp;&lt;br&gt;diagnosed&lt;br&gt;with" style="rhombus;whiteSpace=wrap;html=1;" vertex="1" parent="1">
          <mxGeometry x="350" y="70" width="86.88" height="80" as="geometry" />
        </mxCell>
        <mxCell id="EdGCllr-r__RHjTWsl7o-73" style="edgeStyle=orthogonalEdgeStyle;rounded=0;orthogonalLoop=1;jettySize=auto;html=1;exitX=0.5;exitY=1;exitDx=0;exitDy=0;entryX=0.882;entryY=0.002;entryDx=0;entryDy=0;entryPerimeter=0;endArrow=baseDash;endFill=0;" edge="1" parent="1" source="EdGCllr-r__RHjTWsl7o-68" target="EdGCllr-r__RHjTWsl7o-69">
          <mxGeometry relative="1" as="geometry" />
        </mxCell>
        <mxCell id="EdGCllr-r__RHjTWsl7o-68" value="Files" style="rhombus;whiteSpace=wrap;html=1;" vertex="1" parent="1">
          <mxGeometry x="260" y="345" width="63.13" height="65" as="geometry" />
        </mxCell>
        <mxCell id="EdGCllr-r__RHjTWsl7o-69" value="Diagnosis" style="whiteSpace=wrap;html=1;" vertex="1" parent="1">
          <mxGeometry x="210" y="445.93" width="66.88" height="38.13" as="geometry" />
        </mxCell>
        <mxCell id="EdGCllr-r__RHjTWsl7o-74" style="edgeStyle=orthogonalEdgeStyle;rounded=0;orthogonalLoop=1;jettySize=auto;html=1;exitX=1;exitY=0.5;exitDx=0;exitDy=0;entryX=0;entryY=0.75;entryDx=0;entryDy=0;" edge="1" parent="1" source="EdGCllr-r__RHjTWsl7o-70" target="EdGCllr-r__RHjTWsl7o-69">
          <mxGeometry relative="1" as="geometry" />
        </mxCell>
        <mxCell id="EdGCllr-r__RHjTWsl7o-70" value="ID" style="ellipse;whiteSpace=wrap;html=1;" vertex="1" parent="1">
          <mxGeometry x="120" y="472.5" width="60" height="40" as="geometry" />
        </mxCell>
        <mxCell id="EdGCllr-r__RHjTWsl7o-75" style="edgeStyle=orthogonalEdgeStyle;rounded=0;orthogonalLoop=1;jettySize=auto;html=1;exitX=1;exitY=0;exitDx=0;exitDy=0;entryX=0.5;entryY=1;entryDx=0;entryDy=0;endArrow=baseDash;endFill=0;" edge="1" parent="1" source="EdGCllr-r__RHjTWsl7o-71" target="EdGCllr-r__RHjTWsl7o-69">
          <mxGeometry relative="1" as="geometry" />
        </mxCell>
        <mxCell id="EdGCllr-r__RHjTWsl7o-71" value="ID of&lt;br&gt;fast opp" style="ellipse;whiteSpace=wrap;html=1;" vertex="1" parent="1">
          <mxGeometry x="160" y="523.75" width="60" height="40" as="geometry" />
        </mxCell>
        <mxCell id="EdGCllr-r__RHjTWsl7o-76" style="edgeStyle=orthogonalEdgeStyle;rounded=0;orthogonalLoop=1;jettySize=auto;html=1;exitX=0;exitY=0.5;exitDx=0;exitDy=0;entryX=1;entryY=0.5;entryDx=0;entryDy=0;endArrow=baseDash;endFill=0;" edge="1" parent="1" source="EdGCllr-r__RHjTWsl7o-72" target="EdGCllr-r__RHjTWsl7o-69">
          <mxGeometry relative="1" as="geometry" />
        </mxCell>
        <mxCell id="EdGCllr-r__RHjTWsl7o-72" value="name" style="ellipse;whiteSpace=wrap;html=1;" vertex="1" parent="1">
          <mxGeometry x="303.44" y="467.5" width="60" height="40" as="geometry" />
        </mxCell>
      </root>
    </mxGraphModel>
  </diagram>
</mxfile>
